<svg id="Capa_1" data-name="Capa 1" xmlns="http://www.w3.org/2000/svg" xmlns:xlink="http://www.w3.org/1999/xlink" viewBox="0 0 300 250"><defs><style>.cls-1{fill:#802528;}.cls-2{fill:url(#Degradado_sin_nombre_10);}.cls-3{fill:#f4dbb2;}</style><linearGradient id="Degradado_sin_nombre_10" x1="8.57" y1="123.02" x2="291.43" y2="123.02" gradientUnits="userSpaceOnUse"><stop offset="0" stop-color="#f7323f"/><stop offset="0.24" stop-color="#ec2f3c"/><stop offset="0.68" stop-color="#cd2635"/><stop offset="1" stop-color="#b21f2f"/></linearGradient></defs><title>logo-ondesarrollo</title><g id="_Grupo_" data-name="&lt;Grupo&gt;"><polygon class="cls-1" points="47.68 217.8 43.81 217.8 43.81 216.25 47.46 216.25 47.46 212.89 43.81 212.89 43.81 211.4 47.68 211.4 47.68 208.04 39.95 208.04 39.95 221.17 47.68 221.17 47.68 217.8"/><path class="cls-1" d="M60.87,218.82a4.84,4.84,0,0,0,.35-1.86,3.81,3.81,0,0,0-.81-2.51,5.34,5.34,0,0,0-2.47-1.51l-.82-.25a4.15,4.15,0,0,1-.68-.25,1.45,1.45,0,0,1-.43-.31.47.47,0,0,1-.12-.34.63.63,0,0,1,.28-.54,1.91,1.91,0,0,1,1.77-.05,3.75,3.75,0,0,1,1,.59l.29.24,1.6-3.14-.26-.14a8.9,8.9,0,0,0-2-.78,6.71,6.71,0,0,0-3.93.05,4.17,4.17,0,0,0-1.47.91,4.07,4.07,0,0,0-.93,1.4,4.76,4.76,0,0,0-.33,1.8,3.86,3.86,0,0,0,.32,1.67,3.28,3.28,0,0,0,.84,1.11,4.19,4.19,0,0,0,1.16.69c.41.16.83.31,1.25.45l.89.33a2.39,2.39,0,0,1,.54.28.77.77,0,0,1,.24.27.82.82,0,0,1-.22,1,2.34,2.34,0,0,1-2.27,0,5.38,5.38,0,0,1-1.37-.91l-.29-.26-1.7,3.2.22.15a7.88,7.88,0,0,0,4.57,1.47,6.7,6.7,0,0,0,2.15-.32,4.69,4.69,0,0,0,1.63-.92A4,4,0,0,0,60.87,218.82Z"/><polygon class="cls-1" points="64.06 211.4 66.73 211.4 66.73 221.17 70.59 221.17 70.59 211.4 73.27 211.4 73.27 208.04 64.06 208.04 64.06 211.4"/><path class="cls-1" d="M82.38,221.52a5.89,5.89,0,0,0,4.33-1.43,6.17,6.17,0,0,0,1.43-4.48V208H84.28v7.11q0,.54,0,1.1a2.66,2.66,0,0,1-.23.93,1.49,1.49,0,0,1-.55.63,2,2,0,0,1-1.09.24,2,2,0,0,1-1.1-.24,1.42,1.42,0,0,1-.54-.62,2.78,2.78,0,0,1-.22-.94c0-.37,0-.74,0-1.1V208H76.61v7.56A6.15,6.15,0,0,0,78,220.08,5.92,5.92,0,0,0,82.38,221.52Z"/><path class="cls-1" d="M102.34,210a6.86,6.86,0,0,0-2.05-1.43,6,6,0,0,0-2.53-.54H92.65v13.13h5.12a6,6,0,0,0,2.54-.54,6.79,6.79,0,0,0,2.05-1.44,6.67,6.67,0,0,0,1.37-2.1,6.45,6.45,0,0,0,0-5A6.69,6.69,0,0,0,102.34,210Zm-2.12,4.59a3.66,3.66,0,0,1-.22,1.3,2.84,2.84,0,0,1-.63,1,2.94,2.94,0,0,1-1,.66,3.75,3.75,0,0,1-1.4.24h-.44v-6.4H97a3.71,3.71,0,0,1,1.38.24,2.94,2.94,0,0,1,1,.66,2.91,2.91,0,0,1,.64,1A3.56,3.56,0,0,1,100.22,214.6Z"/><rect class="cls-1" x="108.21" y="208.04" width="3.86" height="13.13"/><path class="cls-1" d="M128.46,219.52a6.76,6.76,0,0,0,1.5-2.2,7.13,7.13,0,0,0,0-5.44,6.77,6.77,0,0,0-1.5-2.2,6.94,6.94,0,0,0-2.3-1.47,8.26,8.26,0,0,0-5.81,0,6.85,6.85,0,0,0,0,12.77,8.26,8.26,0,0,0,5.81,0A6.93,6.93,0,0,0,128.46,219.52Zm-2-4.92a3.06,3.06,0,0,1-.25,1.25,3.14,3.14,0,0,1-.7,1,3.26,3.26,0,0,1-1,.66,3.4,3.4,0,0,1-2.48,0,3.14,3.14,0,0,1-1.72-1.66,3.2,3.2,0,0,1,0-2.51,3.14,3.14,0,0,1,1.72-1.66,3.38,3.38,0,0,1,2.48,0,3.26,3.26,0,0,1,1,.66,3.15,3.15,0,0,1,.7,1A3.06,3.06,0,0,1,126.49,214.6Z"/><polygon class="cls-1" points="49.82 229.01 47.54 235.12 45.24 229.01 41.55 229.01 39.33 242.14 43.19 242.14 44.14 235.81 46.6 242.14 48.31 242.14 50.92 235.77 51.88 242.14 55.74 242.14 53.51 229.01 49.82 229.01"/><path class="cls-1" d="M67.31,236.12q0,.54,0,1.1a2.66,2.66,0,0,1-.23.93,1.49,1.49,0,0,1-.55.63,2,2,0,0,1-1.09.24,2,2,0,0,1-1.1-.24,1.42,1.42,0,0,1-.54-.62,2.78,2.78,0,0,1-.22-.94c0-.37,0-.74,0-1.1V229H59.64v7.56a6.15,6.15,0,0,0,1.43,4.48,5.92,5.92,0,0,0,4.33,1.43,5.89,5.89,0,0,0,4.33-1.43,6.17,6.17,0,0,0,1.43-4.48V229H67.31Z"/><polygon class="cls-1" points="79.54 229.01 75.68 229.01 75.68 242.14 83.44 242.14 83.44 238.78 79.54 238.78 79.54 229.01"/><polygon class="cls-1" points="85.18 232.38 87.85 232.38 87.85 242.14 91.71 242.14 91.71 232.38 94.39 232.38 94.39 229.01 85.18 229.01 85.18 232.38"/><rect class="cls-1" x="97.73" y="229.01" width="3.86" height="13.13"/><polygon class="cls-1" points="115.99 229.01 113.71 235.12 111.41 229.01 107.72 229.01 105.49 242.14 109.36 242.14 110.3 235.81 112.77 242.14 114.48 242.14 117.09 235.77 118.05 242.14 121.91 242.14 119.68 229.01 115.99 229.01"/><polygon class="cls-1" points="125.81 242.14 133.54 242.14 133.54 238.78 129.67 238.78 129.67 237.23 133.32 237.23 133.32 233.86 129.67 233.86 129.67 232.38 133.54 232.38 133.54 229.01 125.81 229.01 125.81 242.14"/><path class="cls-1" d="M147.47,231a6.86,6.86,0,0,0-2.05-1.43,6,6,0,0,0-2.53-.54h-5.12v13.13h5.12a6,6,0,0,0,2.54-.54,6.79,6.79,0,0,0,2.05-1.44,6.67,6.67,0,0,0,1.37-2.1,6.45,6.45,0,0,0,0-5A6.69,6.69,0,0,0,147.47,231Zm-2.12,4.59a3.66,3.66,0,0,1-.22,1.3,2.84,2.84,0,0,1-.63,1,2.94,2.94,0,0,1-1,.66,3.75,3.75,0,0,1-1.4.24h-.44v-6.4h.44a3.71,3.71,0,0,1,1.38.24,2.94,2.94,0,0,1,1,.66,2.91,2.91,0,0,1,.64,1A3.56,3.56,0,0,1,145.35,235.58Z"/><rect class="cls-1" x="153.34" y="229.01" width="3.86" height="13.13"/><path class="cls-1" d="M169.36,229h-4l-5,13.13h4.13l.75-2.18h4.21l.75,2.18h4.13Zm-1,7.87h-2.06l1-2.94Z"/><path id="_Trazado_compuesto_" data-name="&lt;Trazado compuesto&gt;" class="cls-2" d="M275.55,150.9c-4.54-3.88-11.67-9-21.13-9a29.11,29.11,0,0,0-11.82,2.61c-3.94-7-10.61-9.09-15-9.64a20,20,0,0,0,8.32-14.35,8.74,8.74,0,0,0-6-9.41l5-23.66a15.56,15.56,0,0,0-24.83-15.86,23.64,23.64,0,0,0-5.53-.61,27.79,27.79,0,0,0-8.15,1.21,20.73,20.73,0,0,0,5.47-11.94,8.74,8.74,0,0,0-6.14-9.45c.28-1.14.58-2.32.84-3.36,1.37-5.39,2.93-11.49,2.93-16.89,0-12-7.67-19.74-19.54-19.74a23.15,23.15,0,0,0-7.18,1.11A15.56,15.56,0,0,0,147.68,17c-5.19-6.18-12.81-6.88-16-6.88-21.41,0-32.49,19.45-34.9,36.36A41.92,41.92,0,0,0,72,38.38c-10.59,0-20.55,3-28,8.49-8.71,6.36-13.5,15.6-13.5,26,0,13.94,7.68,25.44,16.66,32.25L44,119.26q0,.2-.08.41A15.54,15.54,0,0,0,48.77,134a15.63,15.63,0,0,0-8,10.15q-.06.21-.1.43l-1.52,7.19C35.79,149.15,31.62,147,27,147a15,15,0,0,0-4.16.58c-7.56,2.18-10.46,7.93-10.65,12.58a14.88,14.88,0,0,0,2.33,8.45c-5.65,5.53-7.63,13.75-4.3,20.41A18.52,18.52,0,0,0,27,199.56,22.46,22.46,0,0,0,35,198a8.7,8.7,0,0,0,1.4-.7,15.55,15.55,0,0,0,26.26-6.39q.11-.37.2-.75t.15-.72l.92-4.39s0,.05,0,.08c0,.5-.07,1-.07,1.46a15.58,15.58,0,0,0,30.55,4.31q.11-.37.19-.74t.15-.72l.1-.48,2,.57c3.7,8,11.61,12.51,22,12.51a27.17,27.17,0,0,0,8.15-1.25l.09,0c7.16,3.11,14.4,6.46,21.74,9.85,26.2,12.13,53.29,24.67,81.57,27.55a71.81,71.81,0,0,0,7.22.37h0c23.5,0,42.88-12.92,50.56-33.73C295.41,185.2,290.34,163.54,275.55,150.9Z"/><g id="_Grupo_2" data-name="&lt;Grupo&gt;"><path id="_Trazado_compuesto_2" data-name="&lt;Trazado compuesto&gt;" class="cls-3" d="M120.63,68.83c11,0,20.09-9.53,22.71-25a36.19,36.19,0,0,1-8.37.63c-2.09,9.14-6.34,15.65-10.45,15.65-3.7,0-5-1.46-5-7.88a47.61,47.61,0,0,1,2.86-14.6,31.86,31.86,0,0,0,9.61,4,31.88,31.88,0,0,0,11.6.3h0a35.69,35.69,0,0,0,7.93-2.37l0,.07a39,39,0,0,0,8.18-4.82,25.68,25.68,0,0,1-8.51,6.41l-4.07,19.26,0,.15-.06.28h0A6.84,6.84,0,0,0,160.56,63L167.3,30.5c4.81-2.33,9.28-3.13,9.76,2,0,.28,0,.56,0,.87,0,6.23-4.38,18.2-4.38,24.82,0,5.55,2.34,11,9.83,11,5.16,0,9.83-3,10.71-10a6,6,0,0,1-3.21.58c-2.92,0-3.9-1.65-3.9-4.09,0-5.45,4.67-17.23,4.67-25.11s-4.57-11-10.8-11a14,14,0,0,0-9.74,3.78,24.48,24.48,0,0,1-5.48,4.61,18.66,18.66,0,0,0,4.07-5.26,6.84,6.84,0,0,0-13.52-.94h0L152.74,34a31.27,31.27,0,0,1-8.59,1.43c0-.27,0-.52,0-.72a1,1,0,0,1,0-.2c0-10.22-4.09-15.57-12.46-15.57-20,0-26.67,23.36-26.67,34.55S111.58,68.83,120.63,68.83Zm9.14-43.08a5,5,0,0,1,2.73-.91c2.53,0,3.78,1.4,4.17,5.47a21.4,21.4,0,0,1,0,4.2,22.77,22.77,0,0,1-7.91-3.62C126.56,28.63,129.08,26.32,129.77,25.75Z"/><path id="_Trazado_compuesto_3" data-name="&lt;Trazado compuesto&gt;" class="cls-3" d="M269.88,157.55c-8.61-7.36-18.18-11.27-32.8.69-.19-9.75-4.27-14.86-12.44-14.86-20,0-26.67,23.36-26.67,34.55,0,.22,0,.43,0,.65-1.78,3.26-4.54,5.49-7.48,5.49-2.72,0-4-.88-4-3.6a13.5,13.5,0,0,1,.39-3.12l3.7-17.51a23.73,23.73,0,0,0,8.82-13.16c1.29-6.1-2-11.94-7.24-13.06s-10.38,2.77-11.8,8.67h-.05l-7.06,33.21c0,.14-.05.27-.08.41-1.53,4.66-4.93,8.15-8.62,8.15-2.72,0-4-.88-4-3.6a13.5,13.5,0,0,1,.39-3.12l3.7-17.51a23.73,23.73,0,0,0,8.82-13.16c1.29-6.1-2-11.94-7.24-13.06s-10.38,2.77-11.8,8.67h-.05l-3.6,16.91a32.64,32.64,0,0,1-8.44-.06,1,1,0,0,1,0-.2c0-10.22-4.09-15.57-12.46-15.57a22.14,22.14,0,0,0-17.17,7.9,7.11,7.11,0,0,0-1.05-3.58,6.3,6.3,0,0,0-5.78-3.44c-.35,0-.69,0-1,.06h-.07c-4.16.44-7.55,3.28-10.69,6l.17-.94a6.84,6.84,0,1,0-13.36-3h0l-.44,2.07a7.17,7.17,0,0,0-1.59-2.23,6.29,6.29,0,0,0-4.74-2c-4.67,0-8.37,3.12-11.78,6l.17-.94a6.84,6.84,0,1,0-13.36-3h0l-4.47,21.09a84.74,84.74,0,0,0-16,3.26,50.19,50.19,0,0,0-5.34,2c-4.9,2.61-7.46,8.3-5.44,12.35,2.31,4.61,7.28,7.26,13.88,4.73a6,6,0,0,1-2-2.56c-1.37-2.58-.5-4.49,1.78-5.36,68.51-26.38,131.57,40.61,199.63,47.53C280.8,234.5,296.46,180.27,269.88,157.55Zm-75.48-16.33a7.32,7.32,0,0,1,1.66,5.69c-.36,3.65-4.44,7.45-4.44,7.45L194,143.08a4.68,4.68,0,0,0-2.75-3.27A4.4,4.4,0,0,1,194.39,141.21Zm-25.93,0a7.32,7.32,0,0,1,1.66,5.69c-.37,3.65-4.44,7.45-4.44,7.45l2.39-11.28a4.68,4.68,0,0,0-2.75-3.27A4.4,4.4,0,0,1,168.47,141.21ZM78,160.28l-1.94,9.16a110.91,110.91,0,0,0-17.28-2.33l2.36-11.19c2-1.88,3.61-3.2,5.78-3.58a7.15,7.15,0,0,0,5.13,5.95,4.37,4.37,0,0,0,1.84.35,6.8,6.8,0,0,0,4.85-1.81v0a9.87,9.87,0,0,0,2.38-3.95S82.84,156.93,78,160.28Zm28.79.86a46.72,46.72,0,0,0-3.52,16.48c-4.67-1.73-9.32-3.33-14-4.74l3.57-17c2-1.84,3.55-3.14,5.65-3.55a7.15,7.15,0,0,0,5.4,6,4.61,4.61,0,0,0,1.7.28,7.73,7.73,0,0,0,2.48-.39h0a9.11,9.11,0,0,0,4.14-3.55S112.88,159.27,106.8,161.14ZM221.73,151a5.67,5.67,0,0,1,3.69-1.64c2.53,0,3.78,1.4,4.17,5.47a24.85,24.85,0,0,1-.27,6c-4.71-.41-8.94-3.69-8.78-7A4.35,4.35,0,0,1,221.73,151Zm-6.6,11.68a15.51,15.51,0,0,0,13.24,3.88c-1.86,10.37-6.48,18-10.94,18-3.7,0-5-1.46-5-7.88A47.08,47.08,0,0,1,215.13,162.63Zm-88-11.75a5.6,5.6,0,0,1,3.6-1.57c2.53,0,3.78,1.4,4.17,5.47a20.94,20.94,0,0,1,0,3.87C127.47,157.18,125.3,153.47,127.11,150.88Zm6.35,16.69c-2,9.83-6.43,17-10.74,17-3.7,0-5-1.46-5-7.88a49.39,49.39,0,0,1,3.93-17.36c1.49,2.07,4.35,3.4,7.3,4.27v0s15.36,4.11,27.61-.15c0,0-2.1,2-7.35,3.26l-1.89,8.87a31.9,31.9,0,0,0-.78,6.33c0,8.18,4.57,11.68,10.41,11.68A18.36,18.36,0,0,0,171.06,187a21.23,21.23,0,0,0,1.68-2.2h0v0c.19-.29.38-.59.57-.9l.13-.22q.22-.38.43-.77l.16-.3c.13-.26.26-.52.38-.79l.14-.31c.17-.37.33-.75.48-1.15v.08c0,.09,0,.27-.07.51V181c0,.13,0,.27-.08.42a23.28,23.28,0,0,1-1.69,5.22c1.46,4.76,5.22,6.88,9.75,6.88A18.36,18.36,0,0,0,197,187a21.36,21.36,0,0,0,1.93-2.59h0l.07-.11.38-.64.15-.26c.13-.22.25-.46.37-.69l.14-.27c.12-.24.24-.5.36-.75l.12-.27c.15-.35.3-.7.45-1.07v.08l0,.19v.05l0,.29v0l-.07.37a23,23,0,0,1-1.34,4.45c2.42,5.32,7.59,7.53,14.07,7.53,12,0,21.71-11.29,23.26-29.3l.06-.52c.41-.25.8-.5,1.14-.74,2.38-1.7,10.27-6.09,16.6-6.09,17.92,0,1.32,50.86-43.52,51.65-29.34.52-55.3-9.64-79.94-19.61,5.2-4.35,9-11.59,10.52-21A61.42,61.42,0,0,1,133.47,167.57ZM264.8,217.29c-20.38,18.66-57.34,5-66.92,1a2.81,2.81,0,0,1-1.6-3.41l.35-1.16a2.81,2.81,0,0,1,2.81-2c59.21,2.7,64.57-38.69,65-47.15a2.81,2.81,0,0,1,1.42-2.28l1-.54a2.83,2.83,0,0,1,3.28.34C280.35,171.17,287.18,196.79,264.8,217.29Z"/><path id="_Trazado_" data-name="&lt;Trazado&gt;" class="cls-3" d="M118.84,193.3a18.4,18.4,0,0,0,5.53-.85c-6.63-2.74-13.27-5.26-19.92-7.39C106.72,190.9,112.07,193.3,118.84,193.3Z"/><path id="_Trazado_2" data-name="&lt;Trazado&gt;" class="cls-3" d="M40.92,185.51h0a6.84,6.84,0,0,0,13.36,2.81h0l0-.09c0-.16.07-.31.1-.47l1.95-9.26A90.4,90.4,0,0,0,41.88,181Z"/><path id="_Trazado_3" data-name="&lt;Trazado&gt;" class="cls-3" d="M72.66,185.51h0a6.84,6.84,0,0,0,13.36,2.81h0l0-.09q.06-.23.1-.47l1.51-7.17a121.57,121.57,0,0,0-13.56-2Z"/><path id="_Trazado_4" data-name="&lt;Trazado&gt;" class="cls-3" d="M23.95,165.84c1.42.54,3.28.11,6.08-1.17,4-1.82,10,.77,10,.77S32.31,153.94,25.22,156,21.32,164.85,23.95,165.84Z"/><path id="_Trazado_compuesto_4" data-name="&lt;Trazado compuesto&gt;" class="cls-3" d="M56.9,101v.07a61.85,61.85,0,0,0,13,4.66v0a114.3,114.3,0,0,0,15.79,2.79h0a161.29,161.29,0,0,0,27,.49,53,53,0,0,1-7.46,1.55c-.11,1.2-.17,2.33-.17,3.35,0,11,6,15.47,15.18,15.47,8.91,0,15.6-4.28,20.72-9.87,1.41,5.12,6.92,9.95,15.41,9.95a28.11,28.11,0,0,0,19.07-6.75,29.73,29.73,0,0,0,3.49-3.45c.34-.42.68-.85,1-1.3v0a22.75,22.75,0,0,0,2.64-4.48,20.3,20.3,0,0,1-2.08,6.85c2,6.54,6.91,9,12.05,9,6.78,0,11.31-4.31,14.33-8.7.61,4.66,3.23,8.7,9.68,8.7,5.16,0,9.83-3,10.71-10A6,6,0,0,1,224,120c-2.89,0-4.42-2.37-3.76-5.56l6.18-29a6.84,6.84,0,1,0-13.32-3.09h0l-.62,3v-.68c0-2.82-2.34-5-7.89-5-15.47,0-23.55,17.46-24.83,30.5-.28,1.88-2.86,4.58-5.17,5.76a7.39,7.39,0,0,1-3.2,1.13s1.54-1.3,2.73-2.48a18.9,18.9,0,0,0,.1-2c0-6.37-.64-2.84-1.79-27.4,0,0,0-.08,0-.13a8.12,8.12,0,0,0-15.75-2.79h0l-.1.32,0,.1a117.72,117.72,0,0,1-10.84,25.23,9.6,9.6,0,0,0-4.88,6.57c-4,4-8.2,6.77-14.39,6.77-4.67,0-7-1.56-7-8.18,0-1.17.1-2.53.19-3.89,11.68-.68,22.39-9.34,22.39-20.54,0-4.87-2-9.34-10.71-9.34-15.41,0-22.69,14-25.2,25.51q-2.59,0-5,0c2.25-7,5-15.69,3.05-30.42-2-15.09-15.68-27.23-32.19-27.23-17.28,0-32.81,9.57-32.81,25.75C39.15,86.6,48.95,97,56.9,101ZM207.62,85.71a3.78,3.78,0,0,1,4,3.7l-4.67,22c-1.17,5.64-5.25,8.57-8.08,8.57-1.75,0-4.87-.1-4.87-7.59C194,103.23,199.35,85.71,207.62,85.71Zm-59.28,30.46c2.53,0,4.28-2.43,4.28-4.77a3.67,3.67,0,0,0-2.24-3.41,113.56,113.56,0,0,0,7.68-17.77l.26.29c.95,14.19,1.79,17.2,1.79,22.15,0,6.81-4.19,9-8.47,9s-5.94-2.24-5.94-6.81A2.81,2.81,0,0,0,148.35,116.18Zm-27.66-13c2.09-9.25,6.66-18.77,11.4-18.77,1.85,0,2.43,1.56,2.43,4,0,8.08-6.62,15.57-14.11,16.06h0a26.25,26.25,0,0,1-3.57.46A39.59,39.59,0,0,0,120.68,103.22ZM70,51.65c7.49,0,14,4.76,17.69,11.9A39.17,39.17,0,0,1,91.1,78.71a86.38,86.38,0,0,1-3.74,25.17A86.31,86.31,0,0,1,71,100.51l5.3-23.29a6.84,6.84,0,1,0-13.15-3.78h0L58.34,94.36c-5-3.66-7.18-7.56-8.14-10.38a29,29,0,0,1-.73-3.89c0-.1,0-.17,0-.17h0a29.45,29.45,0,0,1-.2-3.27C49.25,62.84,58.55,51.65,70,51.65Z"/><path id="_Trazado_5" data-name="&lt;Trazado&gt;" class="cls-3" d="M59.28,129.36a6.86,6.86,0,0,0,6.41-4.43h0c4.19,3.6,8.18,5.16,11.87,5.16,8.27,0,15.92-7.86,20.95-18.79a105.2,105.2,0,0,1-14.13,0c-3.08,6.16-7.13,10.23-12,10.23a9.16,9.16,0,0,1-5.55-1.95l2.23-10.3a129.17,129.17,0,0,1-13.26-3.37l-3.28,15.2h0a6.86,6.86,0,0,0,6.72,8.26Z"/><path id="_Trazado_6" data-name="&lt;Trazado&gt;" class="cls-3" d="M201,213.69h-.41a1.51,1.51,0,0,0-1.52,1.13l-.16.6a1.51,1.51,0,0,0,.83,1.75l.36.16a1.51,1.51,0,0,0,2.08-1l.2-.75A1.51,1.51,0,0,0,201,213.69Z"/><path id="_Trazado_7" data-name="&lt;Trazado&gt;" class="cls-3" d="M207.16,213.63H207a1.51,1.51,0,0,0-1.47,1.18l-.61,2.7a1.51,1.51,0,0,0,1,1.76l.22.07a1.51,1.51,0,0,0,2-1.12l.58-2.77A1.51,1.51,0,0,0,207.16,213.63Z"/><path id="_Trazado_8" data-name="&lt;Trazado&gt;" class="cls-3" d="M213.39,213.5h-.25a1.51,1.51,0,0,0-1.49,1.24l-.84,4.69a1.51,1.51,0,0,0,1.09,1.72l.4.11A1.51,1.51,0,0,0,214.2,220l.68-4.79A1.51,1.51,0,0,0,213.39,213.5Z"/><path id="_Trazado_9" data-name="&lt;Trazado&gt;" class="cls-3" d="M218.83,213.12a1.51,1.51,0,0,0-1.17,1.36l-.48,6.58a1.51,1.51,0,0,0,1.16,1.58l.73.17a1.51,1.51,0,0,0,1.85-1.53l-.25-6.75A1.51,1.51,0,0,0,218.83,213.12Z"/><path id="_Trazado_10" data-name="&lt;Trazado&gt;" class="cls-3" d="M227.08,213.19a1.51,1.51,0,0,0-1.85-1.26l-.91.22a1.51,1.51,0,0,0-1.15,1.59l.71,8.93a1.51,1.51,0,0,0,1.34,1.38l1.52.17a1.51,1.51,0,0,0,1.66-1.71Z"/><path id="_Trazado_11" data-name="&lt;Trazado&gt;" class="cls-3" d="M233.84,211.35a1.51,1.51,0,0,0-1.84-1.12l-1.31.33a1.51,1.51,0,0,0-1.12,1.73l2,11.33a1.51,1.51,0,0,0,1.45,1.24l2,.05a1.51,1.51,0,0,0,1.51-1.85Z"/><path id="_Trazado_12" data-name="&lt;Trazado&gt;" class="cls-3" d="M239.92,208.81a1.51,1.51,0,0,0-2-.83l-.75.32a1.51,1.51,0,0,0-.87,1.79L240,223.65a1.51,1.51,0,0,0,1.7,1.09l2.41-.39a1.51,1.51,0,0,0,1.16-2Z"/><path id="_Trazado_13" data-name="&lt;Trazado&gt;" class="cls-3" d="M247.14,204.82a1.51,1.51,0,0,0-2.16-.58l-1.61,1a1.51,1.51,0,0,0-.59,1.8L248.46,222a1.51,1.51,0,0,0,1.92.88l3.5-1.26a1.51,1.51,0,0,0,.83-2.11Z"/><path id="_Trazado_14" data-name="&lt;Trazado&gt;" class="cls-3" d="M253.28,199.53a1.51,1.51,0,0,0-2.28-.16l-1,1a1.5,1.5,0,0,0-.26,1.78c1.6,2.94,6.27,11.69,8.16,15.22a1.51,1.51,0,0,0,2.2.51l3.2-2.28a1.51,1.51,0,0,0,.33-2.13Z"/><path id="_Trazado_15" data-name="&lt;Trazado&gt;" class="cls-3" d="M271.43,203.9l-13.49-10.14a1.51,1.51,0,0,0-2.16.37l-.59.89a1.51,1.51,0,0,0,.07,1.77l10.68,13.61a1.51,1.51,0,0,0,2.25.14,21.69,21.69,0,0,0,3.67-4.72A1.5,1.5,0,0,0,271.43,203.9Z"/></g></g></svg>